<svg xmlns="http://www.w3.org/2000/svg" xmlns:xlink="http://www.w3.org/1999/xlink" width="500" zoomAndPan="magnify" viewBox="0 0 375 374.999991" height="500" preserveAspectRatio="xMidYMid meet" version="1.0"><defs><clipPath id="c1a311b694"><path d="M 134 64.761719 L 343.394531 64.761719 L 343.394531 310.011719 L 134 310.011719 Z M 134 64.761719 " clip-rule="nonzero"/></clipPath><clipPath id="29f1bc45fb"><path d="M 84 166 L 168 166 L 168 310.011719 L 84 310.011719 Z M 84 166 " clip-rule="nonzero"/></clipPath><clipPath id="e907ebd356"><path d="M 31.394531 133 L 99 133 L 99 192 L 31.394531 192 Z M 31.394531 133 " clip-rule="nonzero"/></clipPath></defs><rect x="-37.5" width="450" fill="#ffffff" y="-37.499999" height="449.999989" fill-opacity="1"/><rect x="-37.5" width="450" fill="#0d4950" y="-37.499999" height="449.999989" fill-opacity="1"/><g clip-path="url(#c1a311b694)"><path fill="#9af9ed" d="M 343.488281 64.78125 L 276.386719 64.78125 L 134.199219 310.214844 L 201.792969 310.214844 L 343.488281 64.78125 " fill-opacity="1" fill-rule="nonzero"/></g><g clip-path="url(#29f1bc45fb)"><path fill="#73ddd0" d="M 84.679688 224.445312 L 134.199219 310.214844 L 167.808594 252.199219 L 118.234375 166.328125 L 84.679688 224.445312 " fill-opacity="1" fill-rule="nonzero"/></g><g clip-path="url(#e907ebd356)"><path fill="#9af9ed" d="M 31.40625 133.328125 L 65.203125 191.480469 L 98.777344 133.328125 Z M 31.40625 133.328125 " fill-opacity="1" fill-rule="nonzero"/></g></svg>